# Blender v2.79 (sub 0) OBJ File: 'okna.blend'
# www.blender.org
mtllib dach2.mtl
o group_0.034_ID297
v -2.024888 5.787683 -7.894163
v -5.930138 2.968282 -6.424750
v -5.930138 2.968282 -7.894164
v -5.930138 2.968282 -5.862163
v -5.930138 2.968281 -0.988539
v -5.930138 2.968280 3.885087
v -5.930138 2.968280 7.790338
v -2.024888 5.787680 7.790338
v -2.024888 5.787680 7.790338
v -2.024888 5.787683 -7.894163
v -5.930138 2.968280 7.790338
v -5.930138 2.968280 3.885087
v -5.930138 2.968281 -0.988539
v -5.930138 2.968282 -5.862163
v -5.930138 2.968282 -6.424750
v -5.930138 2.968282 -7.894164
vt 3.510131 9.444504
vt 20.662909 9.444504
vt 3.510131 4.176966
vt 7.780964 4.176966
vt 13.110829 4.176966
vt 18.440689 4.176966
vt 19.055939 4.176966
vt 20.662909 4.176966
vt 12.397750 5.666703
vt 11.433559 2.506179
vt 12.397750 2.506179
vt 11.064409 2.506179
vt 7.866495 2.506179
vt 4.668579 2.506179
vt 2.106079 2.506179
vt 2.106079 5.666703
vn -0.5853 0.8108 0.0000
vn 0.5853 -0.8108 -0.0000
usemtl Roofing_Shingles_Asphalt.002
s 1
f 9/1/1 10/2/1 11/3/1
f 11/3/1 10/2/1 12/4/1
f 12/4/1 10/2/1 13/5/1
f 13/5/1 10/2/1 14/6/1
f 14/6/1 10/2/1 15/7/1
f 16/8/1 15/7/1 10/2/1
usemtl Wood__Floor.002
f 1/9/2 2/10/2 3/11/2
f 2/10/2 1/9/2 4/12/2
f 4/12/2 1/9/2 5/13/2
f 5/13/2 1/9/2 6/14/2
f 6/14/2 1/9/2 7/15/2
f 7/15/2 1/9/2 8/16/2
