# Blender v2.79 (sub 0) OBJ File: 'okna.blend'
# www.blender.org
mtllib sciany2.mtl
o group_0.003_ID43.001
v -5.930138 0.002831 -0.988539
v -5.930138 2.968279 3.885087
v -5.930138 0.002829 3.885087
v -5.930138 2.968281 -0.988539
v -5.930138 0.002833 -5.862163
v -5.930138 2.968283 -5.862163
v -5.930138 2.968279 7.790339
v -5.930138 0.002829 7.790337
v -5.930138 0.002833 -7.894164
v -5.930138 2.847633 -6.424749
v -5.930138 2.847633 -7.834448
v -5.930138 2.847633 -7.894164
v -5.930138 2.968283 -6.424749
v -5.930138 2.968283 -7.894164
v -5.930138 2.968281 -0.988539
v -5.930138 0.002831 -0.988539
v -5.930138 2.968279 3.885087
v -5.930138 0.002829 3.885087
v -5.930138 2.968283 -5.862163
v -5.930138 0.002833 -5.862163
v -5.930138 2.968279 7.790339
v -5.930138 0.002829 7.790337
v -5.930138 2.847633 -6.424749
v -5.930138 2.968283 -6.424749
v -5.930138 2.847633 -7.894164
v -5.930138 0.002833 -7.894164
v -5.930138 2.847633 -7.834448
v -5.930138 2.968283 -7.894164
vt 7.866495 0.000000
vt 4.668579 1.945833
vt 4.668579 0.000000
vt 7.866495 1.945833
vt 11.064409 0.000000
vt 11.064409 1.945833
vt 2.106079 1.945833
vt 2.106079 0.000000
vt 12.397750 0.000000
vt 11.433559 1.866667
vt 12.358560 1.866667
vt 12.397750 1.866667
vt 11.433559 1.945833
vt 12.397750 1.945833
vt 19.666239 4.864583
vt 19.666239 0.000000
vt 11.671450 4.864583
vt 11.671450 0.000000
vt 27.661030 4.864583
vt 27.661030 0.000000
vt 5.265196 4.864583
vt 5.265196 0.000000
vt 28.583910 4.666667
vt 28.583910 4.864583
vt 30.994360 4.666667
vt 30.994360 0.000000
vt 30.896410 4.666667
vt 30.994360 4.864583
vn 1.0000 0.0000 0.0000
vn -1.0000 0.0000 0.0000
usemtl Wood__Floor.000
s 1
f 1/1/1 2/2/1 3/3/1
f 2/2/1 1/1/1 4/4/1
f 5/5/1 4/4/1 1/1/1
f 4/4/1 5/5/1 6/6/1
f 3/3/1 7/7/1 8/8/1
f 7/7/1 3/3/1 2/2/1
f 9/9/1 6/6/1 5/5/1
f 6/6/1 9/9/1 10/10/1
f 10/10/1 9/9/1 11/11/1
f 11/11/1 9/9/1 12/12/1
f 13/13/1 6/6/1 10/10/1
f 11/11/1 13/13/1 10/10/1
f 13/13/1 11/11/1 14/14/1
f 14/14/1 11/11/1 12/12/1
usemtl Roofing_Metal_Standing_Seam_Red.000
f 15/15/2 16/16/2 17/17/2
f 18/18/2 17/17/2 16/16/2
f 19/19/2 20/20/2 15/15/2
f 16/16/2 15/15/2 20/20/2
f 17/17/2 18/18/2 21/21/2
f 22/22/2 21/21/2 18/18/2
f 23/23/2 19/19/2 24/24/2
f 25/25/2 26/26/2 27/27/2
f 27/27/2 26/26/2 23/23/2
f 23/23/2 26/26/2 19/19/2
f 20/20/2 19/19/2 26/26/2
f 25/25/2 27/27/2 28/28/2
f 28/28/2 27/27/2 24/24/2
f 23/23/2 24/24/2 27/27/2
